<?xml version="1.0" standalone="no"?><!DOCTYPE svg PUBLIC "-//W3C//DTD SVG 1.1//EN" "http://www.w3.org/Graphics/SVG/1.1/DTD/svg11.dtd"><svg t="1681833261783" class="icon" viewBox="0 0 1024 1024" version="1.1" xmlns="http://www.w3.org/2000/svg" p-id="5483" xmlns:xlink="http://www.w3.org/1999/xlink" width="200" height="200"><path d="M837.4 911.9h-654c-13.2 0-24-12.8-24-28.3V490.8h702v392.7c0 15.6-10.8 28.4-24 28.4z" fill="#FFFFFF" p-id="5484"></path><path d="M837.4 901.9H187.6c-1.4 0-2.8 0.1-4.1 0-8.7-0.4-13.9-9.5-14.1-18.5-0.1-7.2 0-14.5 0-21.7V741.5 590.3v-94.8-4.7l-10 10h673.5c9.1 0 18.3 0.5 27.4 0h1.2l-10-10V875.6c0 6.6 0.5 13.2-3 19.2-2.7 4.3-6.7 7-11.1 7.1-12.8 0.4-12.9 20.4 0 20 21.6-0.7 33.9-20.3 34-40.2v-20.5-89.7-119.1-107.5c0-17.7 0.6-35.6 0-53.3v-0.7c0-5.4-4.6-10-10-10H187.9c-9.1 0-18.3-0.2-27.4 0h-1.2c-5.4 0-10 4.6-10 10v392.8c0.3 19.3 13.5 37.8 34 38.3 15.2 0.4 30.4 0 45.6 0h608.4c13-0.1 13-20.1 0.1-20.1z" fill="#e9bd91" p-id="5485"></path><path d="M159 490.8l351-388.3 351.8 388.3-350.6 152.8z" fill="#FFFFFF" p-id="5486"></path><path d="M166.1 497.9c11.7-13 23.4-25.9 35.1-38.9 27.9-30.9 55.8-61.7 83.7-92.6L386 254.5c29.3-32.4 58.7-64.9 88-97.3l28.8-31.8c4.5-5 9.6-9.8 13.7-15.1 0.2-0.2 0.4-0.4 0.6-0.7H503c11.7 13 23.5 25.9 35.2 38.9 28 30.9 55.9 61.7 83.9 92.6L723.5 353c29.4 32.4 58.8 64.9 88.2 97.3l28.8 31.8c4.5 5 8.8 10.5 13.7 15.1 0.2 0.2 0.4 0.4 0.6 0.7 0.7-5.2 1.3-10.5 2-15.7-11.6 5.1-23.2 10.1-34.8 15.2-27.9 12.2-55.8 24.3-83.7 36.5-33.8 14.7-67.5 29.4-101.3 44.1-29.2 12.7-58.4 25.4-87.6 38.2-9.6 4.2-19.3 8.4-28.9 12.6-4.5 2-9.4 3.7-13.8 6l-0.6 0.3h10.1c-11.7-5.1-23.4-10.1-35.1-15.2-28.1-12.2-56.1-24.3-84.2-36.5-33.8-14.7-67.6-29.3-101.4-44-29.4-12.7-58.7-25.5-88.1-38.2l-42.9-18.6-0.6-0.3c-5-2.1-10.7-1.5-13.7 3.6-2.5 4.2-1.4 11.5 3.6 13.7 11.7 5.1 23.4 10.1 35.1 15.2 28.2 12.2 56.4 24.5 84.6 36.7 33.9 14.7 67.9 29.4 101.8 44.2 29.3 12.7 58.6 25.4 87.8 38.1 14.1 6.1 28.2 12.3 42.3 18.4 6 2.6 10.1 0.4 15.4-1.8 7.1-3.1 14.3-6.2 21.4-9.3 26.3-11.5 52.7-23 79-34.4l101.1-44.1c30.6-13.3 61.3-26.7 91.9-40 16.7-7.3 33.4-14.5 50.1-21.8 0.8-0.3 1.6-0.7 2.3-1 6.2-2.7 5.9-11.4 2-15.7-11.7-13-23.5-25.9-35.2-38.9-28-30.9-55.9-61.7-83.9-92.6-33.5-37.6-67.2-74.9-101-112.2-29.4-32.4-58.8-64.9-88.2-97.3-14.1-15.6-27.7-32-42.6-47-0.2-0.2-0.4-0.4-0.6-0.7-3.5-3.9-10.6-3.9-14.1 0-11.7 13-23.4 25.9-35.1 38.9-27.9 30.9-55.8 61.7-83.7 92.6L283.1 338.8c-29.3 32.4-58.7 64.9-88 97.3-14.1 15.6-28.6 31-42.5 47-0.2 0.2-0.4 0.4-0.6 0.7-8.7 9.5 5.4 23.6 14.1 14.1z" fill="#e9bd91" p-id="5487"></path><path d="M510.4 643.6l-223-97.1V198.9c0-15.6 12.8-28.3 28.3-28.3H705c15.6 0 28.3 12.8 28.3 28.3v347.9l-222.9 96.8z" fill="#FFFFFF" p-id="5488"></path><path d="M515.5 634.9C490.3 624 465.2 613 440 602.1c-40-17.4-80.1-34.9-120.1-52.3-9.1-4-18.3-8-27.4-11.9 1.7 2.9 3.3 5.8 5 8.6v-82.2-158-104.4c0-5.3 0.6-10.2 4.1-14.5 4.3-5.3 10.1-6.8 16.5-6.8h373.8c9.9 0 21.3-1.7 28.1 7.3 5.6 7.4 3.7 19.8 3.7 28.6V546.9c1.7-2.9 3.3-5.8 5-8.6-25.1 10.9-50.3 21.8-75.4 32.7-40 17.4-80.1 34.8-120.1 52.1-9.1 4-18.3 7.9-27.4 11.9-5 2.2-6.1 9.4-3.6 13.7 3 5.1 8.7 5.7 13.7 3.6 25.1-10.9 50.3-21.8 75.4-32.7 40-17.4 80.1-34.8 120.1-52.1 9.1-4 18.3-7.9 27.4-11.9 3.1-1.4 5-5.4 5-8.6v-84-161c0-33.7 0.1-67.4 0-101.2-0.1-22.8-17.2-40-40-40.1H328.4c-14.7 0-29.2 0.1-40.2 12.2-11 12.1-10.4 26.1-10.4 41v332.9c0 3.2 1.8 7.3 5 8.6 25.1 10.9 50.3 21.9 75.4 32.8 40 17.4 80.1 34.9 120.1 52.3 9.1 4 18.3 8 27.4 11.9 4.9 2.2 10.7 1.5 13.7-3.6 2.1-4.4 1-11.7-3.9-13.9z" fill="#e9bd91" p-id="5489"></path><path d="M590.3 305.1c-50.6 0-79.9 31.1-79.9 31.1s-29.3-31.1-79.9-31.1c-47.1 0-64 75.1-36.8 109.3 35.7 44.9 80 43 116.7 94.5 36.7-51.5 81-49.6 116.7-94.5 27.2-34.2 10.4-109.3-36.8-109.3z" fill="#ecc3c1" p-id="5490"></path><path d="M590.3 295.1c-22.2 0.2-44.1 5.7-63.5 16.7-8.3 4.7-16.8 10.4-23.4 17.4h14.1c-12.1-12.8-29.5-21.8-46-27.4-26.2-8.9-58.3-11.8-78.9 9.9-16.9 17.7-23.8 44.6-21.6 68.6 1.2 12.3 4.4 24.7 11.2 35.2 8.9 13.8 21.9 25.1 35.2 34.5 13.9 9.8 29.1 17.3 43.5 26.4 15.9 10 29.9 22.4 41 37.7 4.6 6.4 12.7 6.4 17.3 0 14.3-19.7 33.1-33.4 54-45.5 19.6-11.3 39.2-22.7 54.8-39.6 13.7-14.8 21.1-31.8 22.2-52 1-17.7-2.9-36.2-11.7-51.6-10.2-17.7-27.4-30.1-48.2-30.3-12.9-0.1-12.9 19.9 0 20 7 0.1 11.5 1.5 18.1 5.7 1.6 1.1 3.7 2.9 6 5.4 2.6 2.7 3.8 4.4 6.2 8.4 7.4 12.6 10.3 27.3 9.4 42.4-0.4 6.7-1.7 13.6-4.7 21 0.7-1.7-0.6 1.3-0.6 1.3-0.4 0.9-0.9 1.8-1.4 2.7-0.8 1.5-1.7 2.8-2.6 4.2-1.3 2-0.9 1.3-2.9 3.7-2.2 2.7-4.6 5.2-7 7.7-14.5 14.9-32.6 24.6-50.4 35-23.1 13.4-43 29.5-58.8 51.3h17.3c-10.3-14.2-22.2-26.5-36.4-36.9-11.4-8.4-23.8-15.1-36-22.2-12.1-7.1-23.9-14.6-34.1-24.4-2.8-2.7-5.5-5.6-8.1-8.6-1.3-1.5-2.5-2.9-3.7-4.5 0.8 1-1.2-1.7-1.6-2.4-3.2-5-4.2-7.6-5.8-12.9-5.6-19.1-3-41.8 7.6-58.8 2.7-4.3 4.3-6.4 8.5-10.2 2-1.8 1.6-1.6 4.5-3.3 1.1-0.7 2.2-1.3 3.3-1.9 0.4-0.2 0.9-0.4 1.3-0.6 1-0.4-0.9 0.3 0.7-0.3 6-1.9 8.4-2.1 15.3-1.9 7.6 0.3 15 1.3 22.3 3.2 12.7 3.2 24 8.2 34.8 15.6 1.1 0.7 2.1 1.4 3.1 2.2 0.6 0.4 3.3 2.6 1.3 0.9 1.3 1 2.6 2.1 3.9 3.2 1.1 1 2.2 2 3.3 3.1 3.6 3.8 10.5 3.8 14.1 0 1.6-1.7 3.4-3.2 5.1-4.7 0.6-0.5 3-2.4 1.1-0.9 1.2-0.9 2.3-1.7 3.5-2.6 2.8-2 5.8-3.8 8.8-5.6 16.4-9.5 35.1-14.3 54.3-14.5 13.2 0.1 13.2-19.9 0.3-19.8z" fill="#ecc3c1" p-id="5491"></path></svg>